<svg width="8" height="15" viewBox="0 0 8 15" fill="none" xmlns="http://www.w3.org/2000/svg">
<path d="M6.40616 14.7917C6.25054 14.7922 6.09678 14.7579 5.95617 14.6912C5.81557 14.6245 5.6917 14.5271 5.59366 14.4063L0.562406 8.15625C0.409196 7.96986 0.325439 7.73607 0.325439 7.49479C0.325439 7.25352 0.409196 7.01972 0.562406 6.83333L5.77074 0.583336C5.94755 0.37061 6.20162 0.236835 6.47707 0.211439C6.75251 0.186044 7.02676 0.271108 7.23949 0.447919C7.45221 0.62473 7.58599 0.878804 7.61139 1.15425C7.63678 1.42969 7.55172 1.70394 7.37491 1.91667L2.71866 7.5L7.21866 13.0833C7.34603 13.2362 7.42695 13.4224 7.45182 13.6199C7.4767 13.8173 7.44449 14.0178 7.35902 14.1975C7.27354 14.3772 7.13837 14.5287 6.96951 14.634C6.80064 14.7393 6.60515 14.794 6.40616 14.7917Z" fill="black"/>
</svg>
